<svg version="1.1" id="Layer_1" xmlns="http://www.w3.org/2000/svg" xmlns:xlink="http://www.w3.org/1999/xlink" x="0px" y="0px" viewBox="0 0 764.3 152.6" style="enable-background:new 0 0 764.3 152.6;" xml:space="preserve" width="140">
<style type="text/css">
	.st0{fill:#FFFFFF;}
	.st1{fill:#00BB31;}
</style>
<g>
	<polygon class="st0" points="65.4,130.8 65.4,21.8 0,21.8 0,65.4 43.6,65.4 43.6,152.6 87.2,152.6 87.2,130.8 	"></polygon>
	<polygon class="st1" points="65.4,0 65.4,130.8 109,130.8 109,43.6 152.6,43.6 152.6,0 	"></polygon>
	<g>
		<path class="st0" d="M740.3,76.3c0,17.6-13.7,32-30.5,32h-36c-16.8,0-30.5-14.4-30.5-32s13.7-32,30.5-32h36
			C726.6,44.3,740.3,58.7,740.3,76.3 M709.8,21.8h-36c-30.1,0-54.5,24.5-54.5,54.5s24.5,54.5,54.5,54.5h36
			c30.1,0,54.5-24.5,54.5-54.5S739.9,21.8,709.8,21.8"></path>
	</g>
	<polygon class="st0" points="520.8,21.8 496.8,21.8 496.8,130.8 617.7,130.8 617.7,108.3 520.8,108.3 	"></polygon>
	<polygon class="st0" points="364.7,130.8 473.6,130.8 473.6,108.3 388.7,108.3 388.7,87.6 473.6,87.6 473.6,65.1 388.7,65.1
		388.7,44.3 473.6,44.3 473.6,21.8 364.7,21.8 	"></polygon>
	<polygon class="st0" points="218,44.3 272.5,44.3 272.5,130.8 296.5,130.8 296.5,44.3 351,44.3 351,21.8 218,21.8 	"></polygon>
</g>
</svg>